<svg xmlns="http://www.w3.org/2000/svg" xmlns:xlink="http://www.w3.org/1999/xlink" width="64" height="63" viewBox="0 0 64 63"><defs><path id="a" d="M.06 0v63h63.773V0z"/></defs><g fill="none" fill-rule="evenodd"><mask id="b" fill="#fff"><use xlink:href="#a"/></mask><path fill="#D5915B" d="M63.833 32c0 17.673-14.327 32-32 32-17.673 0-32-14.327-32-32 0-17.673 14.327-32 32-32 17.673 0 32 14.327 32 32" mask="url(#b)"/><path fill="#AE7A51" d="M41.64 23.415l-1.065-.972a84.7 84.7 0 0 1 3.24-3.023c.311.409.7.757 1.144 1.021a68.399 68.399 0 0 0-3.319 2.974"/><path fill="#DEDECA" d="M37.562 24.063S44.25 17 47.938 15.125l-10.376 8.938"/><path fill="#DEDECA" d="M37.562 25.062a1.001 1.001 0 0 1-.726-1.687c.278-.294 6.851-7.21 10.648-9.142a1.002 1.002 0 0 1 .907 1.784c-3.491 1.774-10.037 8.664-10.102 8.733a.996.996 0 0 1-.727.312"/><path fill="#AE7A51" d="M27.995 53a15.94 15.94 0 0 1-10.775-4.176c-6.53-5.954-6.997-16.074-1.044-22.604A15.962 15.962 0 0 1 28.005 21c2.077 0 4.156.402 6.114 1.212l-3.248 3.563c-1.117 1.224-1.351 2.828-.524 3.582l4.994 4.553c.288.262.666.387 1.084.387.784 0 1.707-.44 2.435-1.238l3.266-3.582c3.091 5.804 2.382 13.165-2.302 18.303A15.96 15.96 0 0 1 27.995 53"/><path fill="#AE7A51" d="M42.126 29.477a15.954 15.954 0 0 0-2.807-3.786c.595-.601 1.406-1.406 2.321-2.276l1.786 1.627c.827.755.593 2.359-.523 3.583l-.777.852m-5.431-5.911a15.853 15.853 0 0 0-2.576-1.354l.794-.871c.728-.799 1.652-1.239 2.435-1.239.418 0 .797.125 1.084.388l.66.601c-1.272 1.248-2.157 2.18-2.256 2.284a.991.991 0 0 0-.141.191"/><path fill="#906747" d="M39.319 25.691a16.267 16.267 0 0 0-1.028-.943c.053-.056.972-1.022 2.284-2.305l1.065.972c-.915.87-1.726 1.675-2.321 2.276"/><path fill="#B3B2A4" d="M38.291 24.748a16.108 16.108 0 0 0-1.596-1.182.991.991 0 0 1 .141-.191c.099-.104.984-1.036 2.256-2.284l1.483 1.352a95.556 95.556 0 0 0-2.284 2.305"/><path fill="#906747" d="M36.425 34.297c-.418 0-.796-.125-1.084-.387l-4.994-4.553c-.827-.754-.593-2.358.524-3.582l3.248-3.563c.888.367 1.75.818 2.576 1.354a1 1 0 0 0 .506 1.429l-.365.38a1.001 1.001 0 0 0 1.453 1.375 74.79 74.79 0 0 1 1.03-1.059 15.954 15.954 0 0 1 2.807 3.786l-3.266 3.582c-.728.798-1.651 1.238-2.435 1.238"/><path fill="#77563E" d="M37.562 27.063a1.001 1.001 0 0 1-.726-1.688l.365-.38a1 1 0 0 0 1.088-.245l.002-.002a16.267 16.267 0 0 1 1.028.943 74.79 74.79 0 0 0-1.03 1.059.997.997 0 0 1-.727.313"/><path fill="#939388" d="M37.562 25.062a1 1 0 0 1-.867-1.496c.549.356 1.083.751 1.596 1.182l-.002.002a.996.996 0 0 1-.727.312"/><path fill="#4C5665" d="M39.824 45.78c-5.954 6.53-16.074 6.997-22.604 1.044-6.53-5.954-6.997-16.074-1.044-22.604 5.954-6.53 16.074-6.997 22.604-1.044 6.53 5.954 6.997 16.074 1.044 22.604"/><path fill="#4C5665" d="M38.86 31.059c-1.116 1.224-2.692 1.605-3.519.851l-4.994-4.553c-.827-.754-.593-2.358.524-3.582l4.042-4.434c1.116-1.224 2.692-1.606 3.519-.851l4.994 4.552c.827.755.593 2.358-.523 3.583l-4.043 4.434"/><path fill="#AE7A51" d="M47 21a3.98 3.98 0 0 1-2.041-.559c1.243-1.034 2.457-1.929 3.432-2.424a1.001 1.001 0 0 0-.246-1.87c.084-.046.166-.09.246-.13a1.001 1.001 0 0 0-.907-1.784c-1.285.654-2.888 1.879-4.458 3.225A4 4 0 1 1 47 21"/><path fill="#906747" d="M44.959 20.441a4.02 4.02 0 0 1-1.144-1.021c1.521-1.339 3.091-2.589 4.33-3.273a1.001 1.001 0 0 1 .246 1.87c-.975.495-2.189 1.39-3.432 2.424"/><path fill="#B3B2A4" d="M43.815 19.42a3.977 3.977 0 0 1-.789-1.962c1.57-1.346 3.173-2.571 4.458-3.225a1.01 1.01 0 0 1 .453-.107 1.001 1.001 0 0 1 .454 1.891c-.08.04-.162.084-.246.13-1.239.684-2.809 1.934-4.33 3.273"/><path fill="#B85756" d="M51 16a4 4 0 1 1-8 0 4 4 0 0 1 8 0"/><path fill="#F0CB83" d="M49 16a2 2 0 1 1-3.999.001A2 2 0 0 1 49 16"/></g></svg>